<?xml version="1.0" encoding="UTF-8"?>
<svg xmlns="http://www.w3.org/2000/svg" version="1.1" viewBox="0 0 266.6 456">
  <defs>
    <style>
      .cls-1 {
        fill: #0068b7;
      }
    </style>
  </defs>
  <!-- Generator: Adobe Illustrator 28.7.8, SVG Export Plug-In . SVG Version: 1.2.0 Build 200)  -->
  <g>
    <g id="_圖層_1">
      <path class="cls-1" d="M39.2,154c-10.3-8.4-25.4-6.9-33.8,3.4-8.4,10.3-6.9,25.4,3.4,33.8,11.3,9.3,17.8,22.7,17.8,36-.1,14.2-6.6,27.8-17.8,36.7-10.2,8.4-11.7,23.5-3.3,33.8,8.4,10.2,23.4,11.7,33.6,3.4,22.5-17.6,35.4-44.5,35.4-74s-12.8-54.7-35.3-73.1h0Z"/>
      <path class="cls-1" d="M99.7,80.2c-10.2-8.4-25.3-7-33.8,3.2s-7,25.3,3.2,33.8h0c33.5,26.7,53.2,67.1,53.3,109.9,0,41.8-19.4,82.1-53.3,110.7-10.2,8.4-11.6,23.6-3.2,33.8,8.4,10.2,23.4,11.6,33.6,3.3,45-35.8,71.1-90.3,70.9-147.8.1-57.9-25.7-110.1-70.8-146.9h.1Z"/>
    </g>
  </g>
</svg>