<?xml version="1.0" encoding="UTF-8"?>
<svg id="_圖層_2" xmlns="http://www.w3.org/2000/svg" version="1.1" xmlns:xlink="http://www.w3.org/1999/xlink" viewBox="0 0 442.8 117.3">
  <!-- Generator: Adobe Illustrator 29.6.1, SVG Export Plug-In . SVG Version: 2.1.1 Build 9)  -->
  <defs>
    <style>
      .st0 {
        fill: #0068b6;
      }

      .st1 {
        fill: #0068b7;
      }

      .st2 {
        fill: url(#_未命名漸層);
      }

      .st3 {
        fill: #fff799;
      }
    </style>
    <linearGradient id="_未命名漸層" data-name="未命名漸層" x1="0" y1="59.2" x2="162.7" y2="59.2" gradientTransform="translate(0 117.9) scale(1 -1)" gradientUnits="userSpaceOnUse">
      <stop offset="0" stop-color="#3fbff0"/>
      <stop offset=".5" stop-color="#00a1e9"/>
      <stop offset="1" stop-color="#008dd7"/>
    </linearGradient>
  </defs>
  <g id="_圖層_1-2">
    <path class="st2" d="M155.7,4.2c-4.6-3-11.8-4.8-22.1-4-32.5,2.5-32.2,18.8-35.6,39.5-3.1,19-6.9-34-58.4-23.8-1.1.2-2.1.5-3,.9-5.6-.9-12.5,3.6-16.6,11.3-3,5.6-3.7,11.5-2.3,16-4.8,2-8.8,8.2-9.8,15.8-.5,3.8-.2,7.5.8,10.6C3.1,72.4-.6,80.2,0,89.1c.7,8.9,5.4,15.9,11.1,17.1,3,6.7,8.5,10.8,15.4,11.1,12.9.6,24.7-6.4,23.5-14-1.1-7.6,4.3-12.6,15.5-10.4,11.3,2.2,14.5,7.8,24.8,17.4,10.7,9.8,30.3,7.6,37.8-7.8,1.6-3.2.6-14.6,1.9-28,0-.9.2-1.8.3-2.7.4-3.1.9-6.2,1.6-9.4.2-.8.4-1.7.6-2.5,1.1-4.1,2.5-8.2,4.4-12.2,4-8.3,10.2-15.7,19.7-20.9,7.1-3.8,8.8-16-1.2-22.6h0Z"/>
    <g>
      <path class="st3" d="M151.7,4.9c-11.3,3.4-38.8,12.2-31.2,23.2,5.5,8,9.3,15.3,13.5,19.6,3.9-8.3,10-15.8,19.5-21.1,7.1-3.9,10.9-16.5-1.8-21.7Z"/>
      <path class="st3" d="M129.2,62.5c.2-.8.4-1.7.6-2.5-5.8-2.4-10.8-6.7-10.8-6.7-1.7,3.6,6,7.4,10.2,9.2Z"/>
      <path class="st3" d="M127.4,74.6c0-.9.2-1.8.3-2.7-4.8-2.4-8.5-5.7-8.5-5.7-1.4,3.1,4,6.4,8.3,8.3h0Z"/>
    </g>
    <g>
      <path class="st1" d="M146.6,71.8h-4.1v-6.7h4.1s0,6.7,0,6.7ZM142.5,107.9v-32.3h4.1v32.3s-4.1,0-4.1,0Z"/>
      <path class="st1" d="M179.1,85.5c-1.3-2.3-2.8-4.1-4.6-5.2-1.8-1.1-4-1.7-6.5-1.7s-6.1,1.3-8.5,3.8-3.5,5.6-3.5,9.4,1.2,6.8,3.5,9.3,5.2,3.7,8.6,3.7,4.7-.6,6.6-1.8c1.9-1.2,3.4-3,4.4-5.2h4.6c-1.2,3.5-3.2,6.2-5.9,8.1-2.7,1.9-5.8,2.9-9.5,2.9s-8.6-1.7-11.8-5c-3.2-3.3-4.8-7.3-4.8-12s1.6-8.8,4.9-12.1c3.3-3.3,7.2-5,11.9-5s6.6.9,9.2,2.8,4.7,4.5,6,8h-4.6,0Z"/>
      <path class="st1" d="M221.4,93.1h-29.1c.2,3.5,1.5,6.3,3.8,8.5,2.3,2.2,5.1,3.2,8.6,3.2s4.6-.6,6.5-1.9c1.9-1.3,3.4-3,4.5-5.2h4.7c-1.5,3.6-3.6,6.3-6.3,8.2-2.7,1.9-5.8,2.9-9.3,2.9s-8.7-1.7-11.9-5c-3.2-3.3-4.9-7.4-4.9-12.1s1.6-9,4.8-12.2c3.2-3.2,7.2-4.8,12.2-4.8s8.8,1.7,11.9,5c3.1,3.3,4.6,7.7,4.6,13v.3h0ZM216.8,89.4c-.8-3.6-2.2-6.3-4.3-8.1s-4.8-2.7-8.2-2.7-5.8,1-7.9,2.9c-2.2,1.9-3.5,4.6-4,7.9h24.4,0Z"/>
      <path class="st1" d="M277.8,76.2c-1.9-2.7-4.1-4.6-6.4-5.9-2.4-1.2-5.1-1.9-8.1-1.9-4.8,0-8.8,1.8-12.2,5.3s-5.1,7.7-5.1,12.6,1.7,9.5,5,13.1,7.4,5.3,12.2,5.3,5.6-.6,8-1.8c2.4-1.2,4.5-3.1,6.2-5.5h5c-2,3.6-4.6,6.4-7.9,8.4-3.3,2-7,3-11.1,3-6.3,0-11.5-2.1-15.7-6.4-4.2-4.3-6.3-9.6-6.3-16.1s.6-5.8,1.7-8.5c1.1-2.7,2.8-5.1,5-7.2,2-2,4.3-3.6,6.9-4.6s5.3-1.6,8.2-1.6c4.2,0,8.1,1,11.5,3.1s6.1,5,8,8.8h-5.1Z"/>
      <path class="st1" d="M315.5,102.8c-1.3,1.9-3,3.3-5.2,4.4-2.2,1.1-4.6,1.6-7.1,1.6-4.7,0-8.7-1.6-11.8-4.8s-4.7-7.2-4.7-12,1.6-8.9,4.8-12.1c3.2-3.2,7.2-4.9,12.1-4.9s4.8.5,6.8,1.5c2.1,1,3.8,2.5,5.2,4.4v-5.2h4v32.3h-4v-5.1h0ZM315.5,91.5c0-3.4-1.2-6.4-3.7-9-2.4-2.6-5.3-3.8-8.5-3.8s-6.4,1.3-8.8,3.8-3.6,5.7-3.6,9.5,1.2,6.6,3.6,9.1c2.4,2.5,5.3,3.7,8.7,3.7s6.1-1.3,8.6-3.9c2.4-2.6,3.6-5.8,3.6-9.4h0Z"/>
      <path class="st1" d="M330.2,107.9h-4.2v-32.3h3.9v3.7c1-1.4,2.1-2.5,3.3-3.1,1.2-.7,2.6-1,4.2-1.1v4.5c-2.6.2-4.4,1-5.6,2.3-1.1,1.3-1.7,3.5-1.7,6.4v19.5h0Z"/>
      <path class="st1" d="M372.8,93.1h-29.1c.2,3.5,1.5,6.3,3.8,8.5,2.3,2.2,5.1,3.2,8.6,3.2s4.6-.6,6.5-1.9c1.9-1.3,3.4-3,4.5-5.2h4.7c-1.5,3.6-3.6,6.3-6.3,8.2s-5.8,2.9-9.3,2.9-8.7-1.7-11.9-5c-3.2-3.3-4.9-7.4-4.9-12.1s1.6-9,4.8-12.2c3.2-3.2,7.2-4.8,12.2-4.8s8.8,1.7,11.9,5c3.1,3.3,4.6,7.7,4.6,13v.3h0ZM368.2,89.4c-.8-3.6-2.2-6.3-4.3-8.1s-4.8-2.7-8.2-2.7-5.8,1-8,2.9c-2.2,1.9-3.5,4.6-4,7.9h24.4Z"/>
      <path class="st1" d="M409.2,93.1h-29.1c.2,3.5,1.5,6.3,3.8,8.5,2.3,2.2,5.1,3.2,8.6,3.2s4.6-.6,6.5-1.9c1.9-1.3,3.4-3,4.5-5.2h4.7c-1.5,3.6-3.6,6.3-6.3,8.2s-5.8,2.9-9.3,2.9-8.7-1.7-11.9-5c-3.2-3.3-4.9-7.4-4.9-12.1s1.6-9,4.8-12.2c3.2-3.2,7.2-4.8,12.2-4.8s8.8,1.7,11.9,5c3.1,3.3,4.6,7.7,4.6,13v.3h0ZM404.6,89.4c-.8-3.6-2.2-6.3-4.3-8.1s-4.8-2.7-8.2-2.7-5.8,1-8,2.9c-2.2,1.9-3.5,4.6-4,7.9h24.4Z"/>
      <path class="st1" d="M418,107.9h-4.2v-32.3h3.9v3.7c1-1.4,2.1-2.5,3.3-3.1,1.2-.7,2.6-1,4.2-1.1v4.5c-2.6.2-4.4,1-5.6,2.3-1.1,1.3-1.7,3.5-1.7,6.4v19.5h0Z"/>
    </g>
    <g>
      <path class="st1" d="M316,26.7v2.8h-10.2v-2.8h10.2ZM309.2,53.9h-2.8v-11.5c0-.6.3-.9.9-.9h8.5c.6,0,.9.3.9.9v9.2c0,.6-.3,1-1,1h-6.5v1.4h0ZM315.8,22v2.8h-9.1v-2.8h9.1ZM315.7,31.8v2.8h-8.8v-2.8h8.8ZM315.7,36.7v2.8h-8.8v-2.8h8.8ZM309.6,44.3c-.3,0-.5.2-.5.5v4.9h4.1c.4,0,.6-.2.6-.6v-4.4c0-.3-.2-.5-.5-.5h-3.7ZM328.1,29.5v-2.4h3.9v-1.8h-2.4c-.3.5-.7,1-1.1,1.5-.7-.7-1.3-1.2-1.8-1.5h-2v1.8h2.7v2.4h-2v1.9c.5-.1,1.1-.3,1.5-.4l.7,2.1c-1.6.6-3.5,1.1-5.9,1.4l-.3-2.5c.5,0,1-.1,1.5-.1v-2.3h-1.2c0,1.7-1,3.5-3,5.2l-2-1.6c1.7-1.2,2.6-2.4,2.6-3.6h-1.8v-2.4h4.6v-1.8h-2.1c-.2.5-.5.9-.8,1.3-.7-.7-1.4-1.1-1.9-1.4.8-1.2,1.3-2.5,1.5-4l2.5.6c-.1.4-.3.8-.4,1.3h1.2v-2.2h2.5v2.2h2.3v1.8c.9-1.2,1.5-2.5,1.7-3.9l2.4.8c-.1.4-.3.8-.5,1.3h1.3v-2h2.5v2h3.1v2.2h-3.1v1.8h3.7v2.4h-2.9v2.2c0,.5.2.7.6.7h.7c0,0,.2-.2.2-.5,0-.2,0-.8,0-1.6l2,.6c-.1,1.8-.4,2.9-.7,3.1-.4.3-.8.4-1.3.4h-2.9c-.7,0-1.1-.4-1.1-1.1v-3.8h-.9c0,.1,0,.2,0,.3,0,1.5-.8,3.1-2.2,4.8l-2.2-1.3c1.4-1.2,2-2.5,2-3.8h-1.6,0ZM319,49c-.2,0-.4-.2-.4-.4v-13.2c0-.2.1-.3.4-.3h18.1c.3,0,.4.1.4.3v13.2c0,.3-.1.4-.4.4h-5.8c2,.7,4.3,1.8,6.9,3.2l-1.5,2.5c-2.9-1.6-5.2-2.7-7.1-3.2l.8-2.5h-6l1.5,1.9c-2.7,1.9-5.2,3.1-7.4,3.5l-1.2-2.8c2.3-.5,4.4-1.3,6.2-2.6h-4.6,0ZM321.5,45.2v1.4c0,0,0,.1.1.1h13.1c0,0,.1,0,.1-.1v-1.4h-13.3ZM334.8,39.1v-1.5c0,0,0-.1-.1-.1h-13.1c0,0-.1,0-.1.1v1.5h13.3ZM334.8,42.9v-1.6h-13.3v1.6h13.3Z"/>
      <path class="st1" d="M360.9,41.8h-11.4v-3.1h11.4v-8.2h-9c-1.2,2.4-2.6,4.5-4.2,6.2l-2.6-2c1.6-1.7,2.9-3.6,4-5.6.8-1.6,1.5-4,2-7.3l3.2.5c-.3,1.9-.7,3.6-1.2,5.2h7.7v-6.1h3.2v6.1h12.8v3.1h-12.8v8.2h11.6v3.1h-11.6v8.8h14.1v3.1h-32.2v-3.1h15v-8.8h0Z"/>
      <path class="st1" d="M386.8,29.7c1.7.9,3.7,2.3,5.8,4.2l-1.9,2.5c-2.2-1.9-4.1-3.3-5.6-4.1,0,0,1.8-2.5,1.8-2.5ZM392.4,39.3c-.7,4.1-2.2,9-4.5,14.6l-2.8-1.2c2.3-5.7,3.8-10.4,4.4-14l2.9.5ZM387.4,21.5c1.8,1,3.8,2.5,5.9,4.5l-2,2.4c-2.3-2-4.2-3.5-5.8-4.4l1.8-2.5h0ZM417.5,25.2h-20.1c-.3,0-.4.1-.4.4v13.5c0,5.8-1.5,10.9-4.3,15.1l-2.7-1.3c1.6-2.5,2.8-4.8,3.4-7.1.5-2,.8-4.6.8-7.6v-15.1c0-.5.3-.8.8-.8h22.6v2.9h0ZM406.5,45.7h-7.5v-2.8h7.5v-3.5h2.9v3.5h7.3v2.8h-7.3v5h9.1v2.8h-21.6v-2.8h9.6v-5h0ZM406.4,31.6h-6.9v-2.8h6.9v-2.8h2.9v2.8h7.1v2.8h-7.1v3.8h8.3v2.8h-19v-2.8h7.8s0-3.9,0-3.8Z"/>
    </g>
    <path class="st0" d="M434,91.1c1.5,0,2.9.4,4.4,1.1,1.4.8,2.5,1.9,3.3,3.3.8,1.4,1.2,2.9,1.2,4.4s-.4,3-1.2,4.4c-.8,1.4-1.9,2.5-3.3,3.3-1.4.8-2.9,1.2-4.4,1.2s-3-.4-4.4-1.2c-1.4-.8-2.5-1.9-3.3-3.3-.8-1.4-1.2-2.9-1.2-4.4s.4-3,1.2-4.4c.8-1.4,1.9-2.5,3.3-3.3,1.4-.8,2.9-1.1,4.4-1.1ZM434,92.5c-1.2,0-2.5.3-3.6,1-1.2.6-2.1,1.5-2.8,2.7-.7,1.2-1,2.4-1,3.7s.3,2.5,1,3.7c.7,1.2,1.6,2.1,2.7,2.7,1.2.7,2.4,1,3.7,1s2.5-.3,3.7-1,2.1-1.6,2.7-2.7,1-2.4,1-3.7-.3-2.5-1-3.7c-.7-1.2-1.6-2.1-2.8-2.7-1.2-.6-2.4-1-3.6-1ZM430.1,104.8v-9.5h3.3c1.1,0,1.9,0,2.4.3.5.2.9.5,1.2.9.3.4.4.9.4,1.4s-.2,1.3-.7,1.8-1.2.8-2,.9c.3.1.6.3.8.5.4.4.9,1,1.4,1.9l1.2,1.9h-1.9l-.8-1.5c-.7-1.2-1.2-1.9-1.6-2.2-.3-.2-.7-.3-1.2-.3h-.9v4h-1.5ZM431.6,99.5h1.9c.9,0,1.5-.1,1.8-.4.3-.3.5-.6.5-1.1s0-.5-.2-.8c-.2-.2-.4-.4-.7-.5-.3-.1-.8-.2-1.5-.2h-1.7v2.9Z"/>
  </g>
</svg>