<?xml version="1.0" encoding="UTF-8"?>
<svg id="_圖層_1" data-name="圖層_1" xmlns="http://www.w3.org/2000/svg" version="1.1" xmlns:xlink="http://www.w3.org/1999/xlink" viewBox="0 0 1303.9 117.3">
  <!-- Generator: Adobe Illustrator 29.6.1, SVG Export Plug-In . SVG Version: 2.1.1 Build 9)  -->
  <defs>
    <style>
      .st0 {
        fill: #0068b7;
      }

      .st1 {
        fill: #fff;
      }

      .st2 {
        fill: url(#_未命名漸層);
      }

      .st3 {
        fill: #fff799;
      }
    </style>
    <linearGradient id="_未命名漸層" data-name="未命名漸層" x1=".4" y1="1383.7" x2="163.1" y2="1383.7" gradientTransform="translate(0 -1324)" gradientUnits="userSpaceOnUse">
      <stop offset="0" stop-color="#3fbff0"/>
      <stop offset=".5" stop-color="#00a1e9"/>
      <stop offset="1" stop-color="#008dd7"/>
    </linearGradient>
  </defs>
  <g id="_圖層_11" data-name="_圖層_1">
    <g id="_圖層_1-2">
      <path class="st2" d="M156.1,5.2c-4.6-3-11.8-4.8-22.1-4-32.5,2.5-32.2,18.8-35.6,39.5-3.1,19-6.9-34-58.4-23.8-1.1.2-2.1.5-3,.9-5.6-.9-12.5,3.6-16.6,11.3-3,5.6-3.7,11.5-2.3,16-4.8,2-8.8,8.2-9.8,15.8-.5,3.8-.2,7.5.8,10.6-5.5,1.9-9.3,9.7-8.6,18.6.7,8.9,5.4,15.9,11.1,17.1,3,6.7,8.5,10.8,15.4,11.1,12.9.6,24.7-6.4,23.5-14-1.1-7.6,4.3-12.6,15.5-10.4,11.3,2.2,14.5,7.8,24.8,17.4,10.7,9.8,30.3,7.6,37.8-7.8,1.6-3.2.6-14.6,1.9-28,0-.9.2-1.8.3-2.7.4-3.1.9-6.2,1.6-9.4.2-.8.4-1.7.6-2.5,1.1-4.1,2.5-8.2,4.4-12.2,4-8.3,10.2-15.7,19.7-20.9,7.1-3.8,8.8-16-1.2-22.6,0,0,.2,0,.2,0Z"/>
      <g>
        <path class="st3" d="M152.2,5.9c-11.3,3.4-38.8,12.2-31.2,23.2,5.5,8,9.3,15.3,13.5,19.6,3.9-8.3,10-15.8,19.5-21.1,7.1-3.9,10.9-16.5-1.8-21.7Z"/>
        <path class="st3" d="M129.7,63.5c.2-.8.4-1.7.6-2.5-5.8-2.4-10.8-6.7-10.8-6.7-1.7,3.6,6,7.4,10.2,9.2Z"/>
        <path class="st3" d="M127.9,75.6c0-.9.2-1.8.3-2.7-4.8-2.4-8.5-5.7-8.5-5.7-1.4,3.1,4,6.4,8.3,8.3h0Z"/>
      </g>
      <g>
        <path class="st0" d="M147.1,72.8h-4.1v-6.7h4.1v6.7ZM142.9,108.9v-32.3h4.1v32.3s-4.1,0-4.1,0Z"/>
        <path class="st0" d="M179.6,86.5c-1.3-2.3-2.8-4.1-4.6-5.2s-4-1.7-6.5-1.7-6.1,1.3-8.5,3.8-3.5,5.6-3.5,9.4,1.2,6.8,3.5,9.3,5.2,3.7,8.6,3.7,4.7-.6,6.6-1.8c1.9-1.2,3.4-3,4.4-5.2h4.6c-1.2,3.5-3.2,6.2-5.9,8.1s-5.8,2.9-9.5,2.9-8.6-1.7-11.8-5-4.8-7.3-4.8-12,1.6-8.8,4.9-12.1c3.3-3.3,7.2-5,11.9-5s6.6.9,9.2,2.8,4.7,4.5,6,8h-4.6,0Z"/>
        <path class="st0" d="M221.8,94.1h-29.1c.2,3.5,1.5,6.3,3.8,8.5s5.1,3.2,8.6,3.2,4.6-.6,6.5-1.9,3.4-3,4.5-5.2h4.7c-1.5,3.6-3.6,6.3-6.3,8.2-2.7,1.9-5.8,2.9-9.3,2.9s-8.7-1.7-11.9-5-4.9-7.4-4.9-12.1,1.6-9,4.8-12.2,7.2-4.8,12.2-4.8,8.8,1.7,11.9,5c3.1,3.3,4.6,7.7,4.6,13v.3h-.1ZM217.2,90.4c-.8-3.6-2.2-6.3-4.3-8.1s-4.8-2.7-8.2-2.7-5.8,1-7.9,2.9c-2.2,1.9-3.5,4.6-4,7.9,0,0,24.4,0,24.4,0Z"/>
        <path class="st0" d="M278.2,77.2c-1.9-2.7-4.1-4.6-6.4-5.9-2.4-1.2-5.1-1.9-8.1-1.9-4.8,0-8.8,1.8-12.2,5.3s-5.1,7.7-5.1,12.6,1.7,9.5,5,13.1,7.4,5.3,12.2,5.3,5.6-.6,8-1.8c2.4-1.2,4.5-3.1,6.2-5.5h5c-2,3.6-4.6,6.4-7.9,8.4s-7,3-11.1,3c-6.3,0-11.5-2.1-15.7-6.4s-6.3-9.6-6.3-16.1.6-5.8,1.7-8.5c1.1-2.7,2.8-5.1,5-7.2,2-2,4.3-3.6,6.9-4.6s5.3-1.6,8.2-1.6c4.2,0,8.1,1,11.5,3.1s6.1,5,8,8.8h-5.1.2Z"/>
        <path class="st0" d="M315.9,103.8c-1.3,1.9-3,3.3-5.2,4.4s-4.6,1.6-7.1,1.6c-4.7,0-8.7-1.6-11.8-4.8s-4.7-7.2-4.7-12,1.6-8.9,4.8-12.1c3.2-3.2,7.2-4.9,12.1-4.9s4.8.5,6.8,1.5c2.1,1,3.8,2.5,5.2,4.4v-5.2h4v32.3h-4v-5.1h0ZM315.9,92.5c0-3.4-1.2-6.4-3.7-9-2.4-2.6-5.3-3.8-8.5-3.8s-6.4,1.3-8.8,3.8-3.6,5.7-3.6,9.5,1.2,6.6,3.6,9.1,5.3,3.7,8.7,3.7,6.1-1.3,8.6-3.9c2.4-2.6,3.6-5.8,3.6-9.4h0Z"/>
        <path class="st0" d="M330.7,108.9h-4.2v-32.3h3.9v3.7c1-1.4,2.1-2.5,3.3-3.1,1.2-.7,2.6-1,4.2-1.1v4.5c-2.6.2-4.4,1-5.6,2.3-1.1,1.3-1.7,3.5-1.7,6.4v19.5h.1Z"/>
        <path class="st0" d="M373.2,94.1h-29.1c.2,3.5,1.5,6.3,3.8,8.5s5.1,3.2,8.6,3.2,4.6-.6,6.5-1.9,3.4-3,4.5-5.2h4.7c-1.5,3.6-3.6,6.3-6.3,8.2s-5.8,2.9-9.3,2.9-8.7-1.7-11.9-5c-3.2-3.3-4.9-7.4-4.9-12.1s1.6-9,4.8-12.2c3.2-3.2,7.2-4.8,12.2-4.8s8.8,1.7,11.9,5,4.6,7.7,4.6,13v.3h-.1ZM368.6,90.4c-.8-3.6-2.2-6.3-4.3-8.1s-4.8-2.7-8.2-2.7-5.8,1-8,2.9-3.5,4.6-4,7.9c0,0,24.5,0,24.5,0Z"/>
        <path class="st0" d="M409.6,94.1h-29.1c.2,3.5,1.5,6.3,3.8,8.5s5.1,3.2,8.6,3.2,4.6-.6,6.5-1.9,3.4-3,4.5-5.2h4.7c-1.5,3.6-3.6,6.3-6.3,8.2s-5.8,2.9-9.3,2.9-8.7-1.7-11.9-5c-3.2-3.3-4.9-7.4-4.9-12.1s1.6-9,4.8-12.2c3.2-3.2,7.2-4.8,12.2-4.8s8.8,1.7,11.9,5,4.6,7.7,4.6,13v.3h-.1ZM405,90.4c-.8-3.6-2.2-6.3-4.3-8.1s-4.8-2.7-8.2-2.7-5.8,1-8,2.9-3.5,4.6-4,7.9c0,0,24.5,0,24.5,0Z"/>
        <path class="st0" d="M418.5,108.9h-4.2v-32.3h3.9v3.7c1-1.4,2.1-2.5,3.3-3.1,1.2-.7,2.6-1,4.2-1.1v4.5c-2.6.2-4.4,1-5.6,2.3-1.1,1.3-1.7,3.5-1.7,6.4v19.5h.1Z"/>
      </g>
      <g>
        <path class="st0" d="M316.4,27.7v2.8h-10.2v-2.8h10.2ZM309.6,54.9h-2.8v-11.5c0-.6.3-.9.9-.9h8.5c.6,0,.9.3.9.9v9.2c0,.6-.3,1-1,1h-6.5v1.4h0ZM316.3,23v2.8h-9.1v-2.8h9.1ZM316.1,32.8v2.8h-8.8v-2.8h8.8ZM316.1,37.7v2.8h-8.8v-2.8h8.8ZM310.1,45.3c-.3,0-.5.2-.5.5v4.9h4.1c.4,0,.6-.2.6-.6v-4.4c0-.3-.2-.5-.5-.5h-3.7ZM328.5,30.5v-2.4h3.9v-1.8h-2.4c-.3.5-.7,1-1.1,1.5-.7-.7-1.3-1.2-1.8-1.5h-2v1.8h2.7v2.4h-2v1.9c.5,0,1.1-.3,1.5-.4l.7,2.1c-1.6.6-3.5,1.1-5.9,1.4l-.3-2.5h1.5v-2.3h-1.2c0,1.7-1,3.5-3,5.2l-2-1.6c1.7-1.2,2.6-2.4,2.6-3.6h-1.8v-2.4h4.6v-1.8h-2.1c-.2.5-.5.9-.8,1.3-.7-.7-1.4-1.1-1.9-1.4.8-1.2,1.3-2.5,1.5-4l2.5.6c-.1.4-.3.8-.4,1.3h1.2v-2.2h2.5v2.2h2.3v1.8c.9-1.2,1.5-2.5,1.7-3.9l2.4.8c-.1.4-.3.8-.5,1.3h1.3v-2h2.5v2h3.1v2.2h-3.1v1.8h3.7v2.4h-2.9v2.2c0,.5.2.7.6.7h.7s.2-.2.2-.5v-1.6l2,.6c-.1,1.8-.4,2.9-.7,3.1-.4.3-.8.4-1.3.4h-2.9c-.7,0-1.1-.4-1.1-1.1v-3.8h-.9v.3c0,1.5-.8,3.1-2.2,4.8l-2.2-1.3c1.4-1.2,2-2.5,2-3.8h-1.6.4v-.2h0ZM319.5,50c-.2,0-.4-.2-.4-.4v-13.2c0-.2.1-.3.4-.3h18.1c.3,0,.4,0,.4.3v13.2c0,.3-.1.4-.4.4h-5.8c2,.7,4.3,1.8,6.9,3.2l-1.5,2.5c-2.9-1.6-5.2-2.7-7.1-3.2l.8-2.5h-6l1.5,1.9c-2.7,1.9-5.2,3.1-7.4,3.5l-1.2-2.8c2.3-.5,4.4-1.3,6.2-2.6h-4.6s.1,0,.1,0ZM321.9,46.2v1.4h13.3v-1.4h-13.3ZM335.2,40.1v-1.5h-13.3v1.5h13.3ZM335.2,43.9v-1.6h-13.3v1.6h13.3Z"/>
        <path class="st0" d="M361.4,42.8h-11.4v-3.1h11.4v-8.2h-9c-1.2,2.4-2.6,4.5-4.2,6.2l-2.6-2c1.6-1.7,2.9-3.6,4-5.6.8-1.6,1.5-4,2-7.3l3.2.5c-.3,1.9-.7,3.6-1.2,5.2h7.7v-6.1h3.2v6.1h12.8v3.1h-12.8v8.2h11.6v3.1h-11.6v8.8h14.1v3.1h-32.2v-3.1h15v-8.8h0Z"/>
        <path class="st0" d="M387.3,30.7c1.7.9,3.7,2.3,5.8,4.2l-1.9,2.5c-2.2-1.9-4.1-3.3-5.6-4.1l1.8-2.5h0ZM392.8,40.3c-.7,4.1-2.2,9-4.5,14.6l-2.8-1.2c2.3-5.7,3.8-10.4,4.4-14l2.9.5h0ZM387.9,22.5c1.8,1,3.8,2.5,5.9,4.5l-2,2.4c-2.3-2-4.2-3.5-5.8-4.4l1.8-2.5h.1ZM417.9,26.2h-20.1c-.3,0-.4.1-.4.4v13.5c0,5.8-1.5,10.9-4.3,15.1l-2.7-1.3c1.6-2.5,2.8-4.8,3.4-7.1.5-2,.8-4.6.8-7.6v-15.1c0-.5.3-.8.8-.8h22.6v2.9h0ZM407,46.7h-7.5v-2.8h7.5v-3.5h2.9v3.5h7.3v2.8h-7.3v5h9.1v2.8h-21.6v-2.8h9.6v-5h0ZM406.8,32.6h-6.9v-2.8h6.9v-2.8h2.9v2.8h7.1v2.8h-7.1v3.8h8.3v2.8h-19v-2.8h7.8s0-3.9,0-3.8h0Z"/>
      </g>
    </g>
    <g>
      <path class="st0" d="M442.1,35.8h58.2v5.3h-58.2v-5.3ZM444.3,61.3h52.3v5.1h-46.2v24.1h-6.1v-29.2h0ZM451.6,44.4h40.1v13.7h-40.1v-13.7ZM456.7,69.8h5.9v17.2h-5.9v-17.2ZM457.8,48.8v5h27.3v-5h-27.3ZM460.1,69.8h25.1v14.1h-25.1v-4.4h19.5v-5.2h-19.5v-4.4h0ZM466.7,30.4l6.3-1.5c.6,1.4,1.2,2.9,1.8,4.6.6,1.7,1.1,3.1,1.4,4.2l-6.6,1.8c-.3-1.2-.7-2.6-1.3-4.4-.6-1.7-1.1-3.3-1.7-4.8h.1ZM492.2,61.3h6.3v23.1c0,1.5-.2,2.5-.6,3.2s-1.1,1.3-2.2,1.7c-1,.4-2.3.6-3.9.7-1.6,0-3.5,0-5.7,0-.1-.7-.4-1.5-.8-2.3-.4-.9-.8-1.6-1.1-2.3h6.8c.8,0,1.2-.4,1.2-1.1v-23.1h0Z"/>
      <path class="st0" d="M514.8,40.9h53.7v32h-6.5v-25.9h-41.1v26.2h-6.2v-32.3h0ZM518,63.2h47.7v6.1h-47.7v-6.1ZM538.2,29.3h6.5v61.2h-6.5V29.3Z"/>
      <path class="st0" d="M585.4,29.7h5.6v26.6c0,2.9,0,5.9-.2,9,0,3.1-.4,6.2-.7,9.2-.4,3-.9,6-1.7,8.7-.7,2.8-1.7,5.4-2.9,7.7-.3-.4-.7-.8-1.3-1.3-.5-.5-1.1-.9-1.6-1.4s-1.1-.8-1.6-1c1-2.2,1.8-4.5,2.3-7s1-5.2,1.3-7.9c.3-2.7.5-5.5.6-8.2,0-2.7,0-5.3,0-7.8v-26.6h.1ZM588.1,61.4h16.3v29h-5.7v-23.5h-10.6v-5.5ZM599,31.1h5.7v23.5h-16v-5.6h10.4v-17.9h-.1ZM610.6,34.8h5.9v22.1c0,2.7,0,5.6-.2,8.5,0,3-.4,6-.9,9-.4,3-1.1,5.9-1.9,8.7-.8,2.8-1.9,5.4-3.3,7.8-.4-.4-.8-.7-1.4-1.2-.6-.4-1.2-.9-1.8-1.3s-1.2-.7-1.7-1c1.2-2.1,2.1-4.5,2.8-7,.7-2.6,1.2-5.2,1.6-8,.4-2.7.6-5.4.7-8.1,0-2.7.2-5.2.2-7.6v-22h0ZM610.6,33.1h29.6v5.7h-29.6v-5.7ZM634.8,49.2h1.1l1.1-.2,3.8,1.2c-1,6.8-2.6,12.8-4.9,18-2.2,5.2-4.9,9.6-8.2,13.4-3.2,3.7-6.8,6.7-10.9,9.1-.3-.5-.6-1.1-1.1-1.7-.4-.6-.9-1.2-1.4-1.8-.5-.6-1-1.1-1.4-1.5,3.7-1.8,7-4.4,9.9-7.8,3-3.4,5.5-7.4,7.5-12s3.5-9.8,4.3-15.4v-1.2h.2ZM613.8,49.2h22.8v5.7h-22.8v-5.7ZM621.4,52.9c1.1,4.9,2.6,9.4,4.5,13.7s4.3,8,7.2,11.1c2.9,3.2,6.2,5.7,10.1,7.5-.4.4-.9.8-1.5,1.5-.6.6-1.1,1.3-1.6,1.9-.5.7-.9,1.3-1.3,1.8-4-2.2-7.5-5.1-10.5-8.6-2.9-3.5-5.4-7.6-7.3-12.3-2-4.7-3.6-9.8-4.9-15.3l5.1-1.2h.2Z"/>
      <path class="st0" d="M664.4,30.2l6.5,1.5c-1,3.4-2.1,6.7-3.5,10-1.3,3.3-2.8,6.3-4.4,9.1s-3.2,5.2-5,7.4c-.4-.4-1-.8-1.7-1.2-.7-.5-1.4-.9-2.1-1.4-.7-.5-1.3-.8-1.9-1.1,1.8-1.9,3.5-4.2,5-6.8s2.8-5.4,4.1-8.3,2.2-6,3-9.1h0ZM653,82.4h59.3v6.1h-59.3v-6.1ZM660.4,61.1h46.2v6h-46.2v-6ZM663.3,41.8h45.8v6.1h-45.8v-6.1ZM679.4,29.3h6.5v56.2h-6.5V29.3Z"/>
      <path class="st0" d="M722,52.1l3.5-4.7c1.3.5,2.7,1.1,4.2,1.8s2.8,1.5,4.1,2.3,2.3,1.5,3.1,2.2l-3.6,5.2c-.8-.7-1.8-1.5-3.1-2.4-1.3-.8-2.6-1.7-4.1-2.4-1.4-.8-2.8-1.5-4.2-2h0ZM723.3,86.2c1-1.7,2-3.8,3.2-6.1,1.1-2.4,2.3-4.9,3.5-7.6s2.2-5.3,3.2-7.9l5.1,3.6c-.9,2.3-1.8,4.8-2.9,7.3-1,2.5-2.1,5-3.2,7.4-1.1,2.4-2.1,4.7-3.2,6.8l-5.7-3.5h0ZM725.4,34.3l3.5-4.6c1.3.5,2.7,1.2,4.2,2,1.5.8,2.8,1.6,4.1,2.4s2.3,1.6,3.1,2.4l-3.7,5.1c-.7-.7-1.7-1.6-3-2.4-1.3-.9-2.6-1.7-4-2.6-1.4-.9-2.8-1.6-4.2-2.2h0ZM742.6,32.5h5.9v18.3c0,2.9,0,6-.3,9.5-.2,3.5-.6,7-1.1,10.6-.6,3.6-1.4,7.1-2.4,10.5s-2.5,6.5-4.3,9.3c-.4-.3-.9-.7-1.5-1.1-.7-.4-1.3-.8-2-1.1s-1.2-.6-1.7-.8c1.7-2.7,3.1-5.6,4.1-8.7s1.7-6.4,2.2-9.7c.5-3.3.8-6.6,1-9.7,0-3.2.2-6.1.2-8.8v-18.3h-.1ZM745.2,32.5h37.7v5.5h-37.7v-5.5ZM746.4,83.2h37v5.3h-37v-5.3ZM749.5,57.3h33v5.1h-33v-5.1ZM750.5,69.9h31v5.1h-31v-5.1ZM752.2,45.1h28v5h-28v-5ZM763,39.4h5.7v19.9h-5.7v-19.9ZM763,63.9h5.7v21.7h-5.7v-21.7Z"/>
      <path class="st0" d="M792.3,52.2l3.5-4.6c1.3.5,2.6,1.1,4,1.7,1.4.7,2.7,1.4,3.9,2.1,1.2.7,2.2,1.5,2.9,2.2l-3.6,5c-.7-.7-1.7-1.4-2.9-2.2s-2.5-1.6-3.8-2.3c-1.4-.7-2.7-1.4-4-1.9h0ZM793.6,86.5c.9-1.7,1.9-3.7,2.9-6.1,1-2.3,2.1-4.8,3.1-7.4s2-5.2,2.9-7.7l5,3.3c-.8,2.3-1.6,4.7-2.6,7.1-.9,2.5-1.9,4.9-2.9,7.3s-1.9,4.6-2.9,6.7l-5.7-3.2h.2ZM795.1,34.4l3.5-4.5c1.2.5,2.5,1.2,3.9,1.9,1.3.7,2.6,1.5,3.8,2.3s2.2,1.6,2.9,2.3l-3.8,5c-.7-.7-1.6-1.6-2.7-2.4-1.2-.9-2.4-1.7-3.7-2.5s-2.6-1.5-3.8-2.1h-.1ZM812.9,75.4l5.7,1.6c-1.1,2.5-2.5,5-4.2,7.5s-3.4,4.6-5.1,6.3c-.4-.4-.8-.7-1.5-1.2-.6-.4-1.2-.8-1.8-1.3-.6-.4-1.2-.7-1.6-1,1.7-1.5,3.3-3.3,4.8-5.5s2.7-4.3,3.6-6.5h0ZM810.6,32.1h19.6v42.3h-19.6s0-42.3,0-42.3ZM815.9,37.5v7h8.7v-7h-8.7ZM815.9,49.6v7.1h8.7v-7.1h-8.7ZM815.9,61.8v7.1h8.7v-7.1s-8.7,0-8.7,0ZM822.1,77.7l4.7-2.6c.9,1.1,1.8,2.2,2.7,3.4.9,1.2,1.8,2.4,2.6,3.6s1.5,2.2,1.9,3.2l-5,3c-.4-1-1.1-2.1-1.8-3.3s-1.6-2.5-2.5-3.8-1.8-2.5-2.7-3.6h0ZM834.5,36.1h5.4v38h-5.4v-38ZM845.7,29.3h5.7v53.9c0,1.8-.2,3.1-.6,4-.4.9-1.1,1.7-2.2,2.2-1,.5-2.4.8-4.1,1-1.7.2-3.9.2-6.6.2,0-.8-.3-1.8-.7-3-.4-1.1-.7-2.2-1.2-3h8.1c.6,0,1,0,1.2-.3.2-.2.3-.6.3-1.1V29.3h0Z"/>
      <path class="st0" d="M865.2,70.4l3.4,1.1c-.2,1.5-.4,3.1-.7,4.9s-.6,3.5-.9,5.2-.7,3.2-1.2,4.5l-3.6-1.3c.5-1.3.9-2.8,1.3-4.5.4-1.7.7-3.4,1-5.2.3-1.8.5-3.3.7-4.8h0ZM888.3,32.1v5.1h-17.6v25.2h15.6v5.1h-20.5v-35.5h22.6,0ZM868.9,42.6h18.2v4.8h-18.2v-4.8ZM868.9,52.3h18.4v4.8h-18.4v-4.8ZM869.5,71.7l2.8-.3c.2,1.9.4,4,.5,6.3,0,2.2.2,4.2.2,5.8l-3,.3v-5.8c0-2.2-.3-4.3-.5-6.3ZM873.5,71.1l2.7-.5c.5,1.7.9,3.6,1.4,5.6.4,2,.7,3.7.9,5.2l-2.8.6c-.2-1.5-.5-3.2-.9-5.2s-.8-3.9-1.3-5.6h0ZM875.9,35.9h4.8v30h-4.8v-30ZM883.6,62.4h4.9v2.1c-.2,5.4-.4,9.7-.5,12.9-.2,3.3-.4,5.7-.7,7.4-.3,1.7-.6,2.8-1.1,3.5-.5.6-1,1.1-1.6,1.3-.6.3-1.2.4-1.9.5s-1.5.2-2.4.2h-2.9c0-.7-.2-1.5-.4-2.4s-.5-1.7-.9-2.3c.9,0,1.8,0,2.5.2h1.7c.4,0,.7,0,.9,0,.3,0,.5-.3.7-.6.3-.4.5-1.4.7-2.9s.3-3.7.5-6.7.3-7.1.4-12.1v-.9h0ZM877.4,70.2l2.4-.9c.7,1.4,1.3,2.8,2,4.5.7,1.6,1.1,3,1.5,4.1l-2.6,1.1c-.4-1.2-.8-2.6-1.5-4.2-.6-1.6-1.2-3.1-1.8-4.5h0ZM904.4,28.6l5.7,1.8c-2.2,3.7-4.9,7.2-8.3,10.4-3.4,3.2-7.1,6-11,8.3-.3-.4-.6-.8-1.1-1.4-.5-.5-.9-1-1.5-1.5-.5-.5-1-.9-1.4-1.1,2.5-1.4,4.9-2.9,7.1-4.8,2.2-1.8,4.2-3.7,6-5.8s3.2-4.1,4.4-6.1v.2ZM895.5,70.7l5.3,1c-.8,3.8-2.1,7.4-3.7,10.7-1.7,3.3-3.6,6-5.8,8.2-.3-.3-.7-.7-1.2-1.1s-1-.9-1.6-1.3-1-.8-1.4-1.1c2.1-1.9,3.9-4.3,5.3-7.2s2.5-5.9,3.1-9.3h0ZM890.9,53.3h13.6v15.7h-13.6v-15.7ZM895,79.8l3.1-3.7c1.4.8,2.9,1.8,4.5,3s2.8,2.2,3.6,3.1l-3.2,4.1c-.8-.9-2-2-3.6-3.3s-3-2.3-4.5-3.3h.1ZM895.1,57.4v7.5h5v-7.5h-5ZM896.1,44h19.7v4.8h-19.7v-4.8ZM907,30.5c1.3,1.5,2.9,3.1,4.8,4.8s4,3.1,6.2,4.5,4.3,2.5,6.4,3.4c-.3.4-.6,1-1,1.7-.3.7-.6,1.4-.9,2.1-.3.7-.5,1.3-.7,1.7-2.2-1.2-4.5-2.7-6.9-4.4s-4.7-3.5-6.8-5.5c-2.1-1.9-3.9-3.8-5.3-5.7,0,0,4.2-2.6,4.2-2.6ZM911.8,70.4l5.6.9c-.7,4-1.8,7.6-3.4,10.9-1.5,3.3-3.4,6.1-5.6,8.3-.3-.3-.7-.7-1.3-1.1s-1.1-.9-1.7-1.3-1.1-.8-1.6-1.1c2.1-1.9,3.8-4.3,5.1-7.2s2.3-6,2.8-9.4h.1ZM907.2,53.3h14.1v15.7h-14.1v-15.7ZM910.4,81.5l3.5-3.8c1.1.7,2.3,1.5,3.6,2.4s2.4,1.8,3.6,2.7c1.1.9,2,1.7,2.7,2.5l-3.8,4.3c-.7-.8-1.5-1.7-2.6-2.6-1.1-1-2.2-1.9-3.5-2.9s-2.4-1.8-3.5-2.6ZM911.4,57.4v7.5h5.3v-7.5h-5.3Z"/>
      <path class="st0" d="M948.3,71.7l6.3,2.2c-1.3,1.7-2.8,3.4-4.5,5.1s-3.4,3.3-5.1,4.8c-1.8,1.5-3.5,2.8-5.1,4-.4-.4-.9-.9-1.6-1.4s-1.3-1-2-1.5-1.3-.9-1.8-1.2c2.6-1.5,5.1-3.4,7.7-5.6s4.6-4.4,6.2-6.6v.2ZM977.7,29.1l4.6,5c-2.9,1.2-6.2,2.4-9.8,3.5s-7.3,2.1-11.2,3-7.8,1.7-11.8,2.5c-4,.7-7.9,1.4-11.7,2,0-.7-.4-1.6-.8-2.7-.4-1-.7-1.9-1.1-2.5,3.8-.6,7.6-1.3,11.5-2.1s7.7-1.6,11.4-2.5,7.1-1.9,10.4-2.9c3.2-1,6-2.1,8.5-3.2h0ZM939.4,71.6c0-.4-.2-.9-.4-1.6s-.4-1.4-.7-2.2c-.2-.8-.5-1.4-.8-1.9,1.2-.2,2.5-.5,4-1.1,1.5-.5,3.2-1.3,5.1-2.2,1.1-.5,2.8-1.3,5-2.4,2.2-1.1,4.6-2.4,7.4-4,2.7-1.6,5.6-3.3,8.5-5.2s5.7-3.9,8.3-5.9l4.7,4.1c-5.9,4.3-12,8.1-18.3,11.4-6.3,3.3-12.5,6.1-18.6,8.5h0c-.8.4-1.5.7-2.1,1s-1.1.5-1.5.8-.6.6-.6.8h0ZM939.4,71.6v-4.7c0,0,3.8-2.2,3.8-2.2l41.6-2.8c0,.8,0,1.8,0,2.8v2.5c-6.4.5-11.9.9-16.5,1.3s-8.5.7-11.7,1-5.8.5-7.8.7-3.6.3-4.8.5-2.1.3-2.8.5-1.2.3-1.7.5h0ZM942.7,57.5c0-.4-.2-1-.4-1.7s-.4-1.4-.7-2.2c-.2-.8-.5-1.4-.8-1.9.8,0,1.7-.4,2.5-.7.9-.3,1.8-.8,2.9-1.4.8-.4,2.1-1.1,3.8-2.1s3.6-2.3,5.7-3.7c2.1-1.5,4-3,5.8-4.6l5.5,3.5c-3.2,2.4-6.6,4.7-10.1,6.8s-7,3.9-10.4,5.3v.2c-.8.3-1.5.6-2,.9-.5.3-1,.6-1.4.9-.4.3-.6.6-.6.9l.2-.2ZM942.7,57.5v-4.4l3.2-1.8,24.8-1.2c-.2.7-.4,1.6-.5,2.6s-.2,1.8-.3,2.4c-4.5.3-8.2.5-11.3.7-3,.2-5.5.4-7.4.5s-3.4.3-4.5.4-1.9.3-2.5.4c-.6,0-1.1.3-1.5.4ZM961,65.7h6.3v17.8c0,1.6-.2,2.9-.6,3.8-.4.9-1.3,1.6-2.5,2.1s-2.7.8-4.5.9c-1.8,0-3.9,0-6.3,0,0-.9-.4-2-.9-3.1-.5-1.2-.9-2.2-1.4-3,1.3,0,2.5,0,3.7,0h5c.5,0,.9,0,1.1-.3.2-.2.3-.4.3-.8v-17.6h-.2ZM972.3,74.3l5-3.3c1.7,1.2,3.5,2.6,5.4,4.1s3.7,3,5.4,4.5,3.1,2.9,4.2,4.1l-5.4,3.7c-1-1.2-2.3-2.6-4-4.2-1.6-1.5-3.4-3.1-5.3-4.7-1.9-1.6-3.7-3-5.4-4.3h0ZM973.9,56.6l5.1-2.6c1.6,1.5,3.3,3.2,5,5s3.2,3.5,4.7,5.2,2.7,3.2,3.6,4.6l-5.3,3.2c-.9-1.4-2.1-2.9-3.5-4.8-1.5-1.8-3-3.6-4.7-5.5-1.7-1.8-3.3-3.6-4.9-5.1h0Z"/>
      <path class="st0" d="M1005.7,72.3l5,.8c-.3,2.9-.7,5.8-1.3,8.7-.6,2.9-1.2,5.4-1.8,7.4-.6-.3-1.4-.6-2.3-1-1-.4-1.8-.6-2.4-.8.8-2,1.4-4.3,1.8-7.1.4-2.7.8-5.4,1.1-8.1h0ZM1004.8,54.6c0-.4-.3-1-.5-1.7s-.5-1.4-.7-2.1c-.2-.7-.5-1.3-.7-1.8.6-.2,1.2-.6,1.7-1.2.6-.6,1.2-1.4,1.9-2.4.4-.5.9-1.3,1.6-2.4.7-1.1,1.4-2.4,2.2-3.9s1.6-3.2,2.4-4.9c.8-1.8,1.6-3.5,2.2-5.3l5.6,2.4c-1.6,3.7-3.5,7.3-5.6,10.8-2.1,3.6-4.3,6.7-6.5,9.4h0c-.7.5-1.4.9-1.8,1.2-.5.3-.9.6-1.3,1-.4.4-.6.7-.6,1h0ZM1005.2,69.8c0-.4-.2-.9-.5-1.7-.2-.7-.5-1.4-.7-2.2-.3-.7-.5-1.4-.8-1.9.8-.2,1.6-.6,2.4-1.4.8-.8,1.7-1.8,2.7-3,.5-.6,1.3-1.6,2.4-3,1.1-1.4,2.2-3.1,3.5-5s2.6-4,3.9-6.3c1.3-2.3,2.5-4.5,3.5-6.8l5.2,3.2c-1.6,3-3.4,6.1-5.4,9-2,3-4,5.8-6.1,8.5s-4.3,5.2-6.4,7.4h0c-.7.5-1.3.9-1.8,1.2-.5.3-.9.6-1.3,1s-.5.7-.5,1h-.1ZM1004.8,54.6v-4.2c0,0,2.4-1.7,2.4-1.7l11.6-.9c-.2.7-.3,1.5-.4,2.4,0,.9,0,1.6,0,2.2-2.6.3-4.7.5-6.4.7s-2.9.4-3.9.5-1.6.3-2.1.4c-.5,0-.8.3-1.1.4v.2ZM1005.2,69.8l-.3-4.4,2.5-1.8,17-2.6c0,.7,0,1.5-.2,2.4v2.2c-3.9.7-7,1.3-9.4,1.7-2.4.4-4.2.8-5.5,1.1-1.3.3-2.2.5-2.8.7s-1.1.4-1.4.6h0ZM1012.9,72.9l4.6-1.1c.4,2.2.8,4.6,1.1,7.2.4,2.6.6,4.8.7,6.7l-4.8,1.2c0-1.9-.2-4.1-.5-6.7s-.6-5-1-7.3h0ZM1019,55.8l4.4-1.6c.7,1.4,1.3,2.9,1.9,4.6.6,1.6,1.2,3.2,1.7,4.7s.8,2.8,1,4l-4.6,1.9c-.2-1.2-.5-2.6-.9-4.1s-1-3.1-1.6-4.8c-.6-1.6-1.2-3.2-1.9-4.6h0ZM1020.3,71.5l4.2-1.5c.7,1.8,1.4,3.8,2.1,5.9s1.2,4,1.5,5.5l-4.5,1.7c-.3-1.6-.7-3.5-1.4-5.6-.7-2.2-1.3-4.2-1.9-6h0ZM1035.5,59.3h5.9c0,4-.4,7.6-.8,10.8s-1,6.1-1.9,8.7-2.3,4.9-4,6.9c-1.8,2-4.1,3.7-7.1,5.1-.2-.5-.5-1.1-1-1.7-.4-.6-.9-1.2-1.4-1.7-.5-.6-1-1.1-1.5-1.5,2.6-1.2,4.6-2.6,6.1-4.2s2.7-3.5,3.4-5.7c.8-2.2,1.3-4.6,1.6-7.4.3-2.8.5-5.9.6-9.4h.1ZM1029.8,62.6c0-.4-.3-1-.5-1.7s-.5-1.5-.8-2.3-.6-1.5-.8-2c.7-.2,1.5-.7,2.2-1.6s1.5-1.9,2.4-3.2c.5-.7,1.2-1.7,2-3.3.9-1.5,1.9-3.3,2.9-5.4s2.1-4.3,3.2-6.7,2-4.8,2.8-7.2l6.8,1.8c-1.5,3.5-3.1,6.9-4.9,10.3-1.8,3.4-3.6,6.6-5.5,9.6s-3.8,5.7-5.6,8.2h0c-.9.6-1.6,1-2.2,1.4s-1.1.7-1.5,1.1c-.4.4-.7.7-.7,1.1h.2ZM1028.3,37.3h35.4v5.8h-35.4v-5.8ZM1029.8,62.6v-4.8c0,0,3.2-2,3.2-2l25.3-2.4c0,.8,0,1.8.2,2.8s.2,1.8.4,2.5c-4.8.5-8.8,1-12.1,1.4-3.3.4-5.9.7-8,1-2,.3-3.7.5-4.8.7-1.2.2-2.1.3-2.7.5s-1.2.3-1.6.5v-.2ZM1046.5,57.8h5.9v23.9c0,.9,0,1.5.3,1.8.2.3.6.4,1.3.4h3.8c.4,0,.8-.2,1-.7.2-.4.4-1.3.5-2.5,0-1.3.2-3.2.2-5.7.4.3,1,.6,1.6,1,.6.3,1.3.6,1.9.9.7.2,1.3.4,1.8.6,0,3.2-.4,5.6-.9,7.4s-1.1,3-2,3.7-2,1.1-3.5,1.1h-5.3c-1.7,0-3-.2-4-.7-.9-.5-1.6-1.3-1.9-2.4-.4-1.1-.5-2.7-.5-4.7v-23.9l-.2-.2ZM1049.9,47.4l5.1-2.2c1.1,1.7,2.3,3.5,3.5,5.5,1.2,1.9,2.3,3.8,3.3,5.7s1.8,3.5,2.3,5l-5.5,2.6c-.5-1.5-1.3-3.1-2.2-5-.9-1.9-2-3.8-3.1-5.9-1.1-2-2.3-3.9-3.4-5.7h0Z"/>
    </g>
    <g>
      <rect class="st0" x="1079.4" y="20.3" width="224.5" height="77.3" rx="14.2" ry="14.2"/>
      <g>
        <path class="st1" d="M1118.7,68.3h43.2v3.7h-43.2v-3.7ZM1119.7,53.8h41.5v9.3h-4.5v-5.9h-32.6v5.9h-4.3v-9.3h0ZM1132,36.9l1.9,2.7c-1.4.6-3.1,1.1-4.9,1.4-1.8.4-3.5.7-4.9.9l-1.6-2.5c.9-.2,2-.4,3.1-.7,1.2-.3,2.3-.6,3.4-.9s2.1-.6,2.9-.9h0ZM1122.5,39.4l4.3,1.1.9,14.9h-4.3l-1-16h0ZM1124.8,43.4h8.9v3h-8.9v-3ZM1125,48.6h8.8v2.9h-8.8v-2.9ZM1127.9,59.9h22v3.3h-22v-3.3ZM1138.6,66.5h4.5v10.1c0,1.1-.2,1.9-.5,2.5s-.9,1-1.8,1.3-1.9.5-3.2.5h-4.8c0-.6-.3-1.2-.6-1.9-.3-.7-.6-1.3-.9-1.9h6.3c.4,0,.6,0,.8-.2,0,0,.2-.3.2-.6v-10,.2ZM1142.5,45l3,1c-1.2,1.6-2.6,3-4.3,4.4-1.7,1.4-3.5,2.6-5.2,3.5-.2-.3-.6-.7-1.1-1.2s-.9-.9-1.2-1.2c1.7-.8,3.4-1.7,5-2.9,1.6-1.1,2.9-2.4,3.9-3.7h-.1ZM1142.4,37l3,.9c-1.1,1.5-2.4,2.9-4.1,4.2s-3.3,2.4-4.9,3.3c-.3-.3-.6-.6-1.2-1.1-.5-.4-1-.8-1.3-1,1.7-.8,3.3-1.7,4.8-2.8s2.7-2.2,3.7-3.4h0ZM1134.8,47.4l2.2-1.9c1.1.5,2.2,1.1,3.4,1.8,1.2.7,2.2,1.4,3.3,2.1,1,.7,1.9,1.4,2.6,2l-2.4,2.1c-.6-.6-1.4-1.3-2.4-2s-2.1-1.4-3.2-2.2c-1.2-.7-2.3-1.4-3.4-1.9h0ZM1135,39.3l2.2-1.9c1,.4,2.1,1,3.2,1.6s2.2,1.3,3.1,1.9c1,.7,1.8,1.3,2.4,1.8l-2.3,2.1c-.6-.6-1.4-1.2-2.4-1.9s-2-1.3-3.1-2-2.2-1.2-3.2-1.7h.1ZM1148.7,59.9h1.1l1-.2,2.6,2.4c-1.2.9-2.4,1.7-3.8,2.5s-2.9,1.6-4.3,2.4c-1.5.7-3,1.4-4.4,2-.3-.4-.6-.8-1-1.3s-.8-.8-1.1-1.1c1.2-.4,2.5-1,3.7-1.7s2.5-1.4,3.6-2.1c1.1-.7,2-1.4,2.7-2v-.8h0ZM1146.9,38.3h9.1v3h-9.1v-3ZM1147,48.6h8.3v2.9h-8.3v-2.9ZM1147.2,43.4h8.4v3h-8.4v-3ZM1154.2,38.3h4.3c0,1.9-.2,3.9-.3,6,0,2.1-.3,4.2-.4,6.1-.2,2-.3,3.7-.5,5.1h-4.4c.2-1.5.4-3.2.6-5.2s.3-4,.5-6.1c0-2.1.2-4.1.3-5.9h0Z"/>
        <path class="st1" d="M1178.3,37.3l4.7,1.1c-.7,2.5-1.5,4.9-2.5,7.3-1,2.4-2,4.6-3.2,6.6s-2.4,3.8-3.6,5.4c-.3-.3-.7-.6-1.2-.9s-1-.7-1.5-1-1-.6-1.4-.8c1.3-1.4,2.5-3,3.6-4.9s2.1-3.9,3-6.1c.9-2.2,1.6-4.4,2.2-6.6h0ZM1170,75.2h43.1v4.4h-43.1v-4.4ZM1175.4,59.7h33.6v4.4h-33.6v-4.4ZM1177.4,45.7h33.3v4.4h-33.3v-4.4ZM1189.2,36.6h4.7v40.8h-4.7v-40.8Z"/>
        <path class="st1" d="M1220.4,72.1c2.1-.4,4.6-1,7.5-1.6s5.9-1.4,8.8-2.1l.5,4.2c-2.8.7-5.5,1.4-8.3,2.1s-5.3,1.3-7.6,1.8l-1-4.5h0ZM1220.8,45.4h16.2v4.2h-16.2v-4.2ZM1222.2,52.2l3.4-.6c.4,1.8.7,3.6.9,5.6.3,2,.5,4,.7,5.9s.3,3.6.4,5.2l-3.6.6c0-1.5,0-3.3-.3-5.2-.2-1.9-.4-3.9-.7-5.9-.3-2-.6-3.9-.8-5.6ZM1225.4,38.2l3.8-1.1c.6,1.1,1.3,2.2,1.9,3.5s1,2.4,1.3,3.4l-4,1.3c-.3-1-.7-2.1-1.2-3.5-.6-1.3-1.2-2.6-1.8-3.7h0ZM1231.8,51.3l3.9.7c-.2,1.6-.5,3.3-.7,5s-.6,3.5-.9,5.2-.6,3.4-.9,5-.6,3-.9,4.2l-3.1-.7c.3-1.3.6-2.7.8-4.3s.5-3.3.7-5.1.5-3.5.6-5.2c.2-1.7.3-3.3.4-4.8h0ZM1236.5,53.8h28.1v4h-28.1v-4ZM1237.8,61.6h24.1v3.8h-20v15.6h-4.1s0-19.4,0-19.4ZM1238.4,38.9h4.2v7.9h16.1v-7.9h4.3v11.8h-24.6v-11.8ZM1245.3,63.1h3.5v17.6h-3.5v-17.6ZM1248.1,55.2l5.3,1.1c-.5,1.4-1,2.9-1.5,4.3-.5,1.5-1,2.7-1.4,3.7l-3.9-1.1c.3-1.2.6-2.5.9-4s.5-2.9.6-4.1h0ZM1248.2,36.7h4.3v12.4h-4.3s0-12.4,0-12.4ZM1252.5,63.1h3.6v17.5h-3.6s0-17.5,0-17.5ZM1259.6,61.6h4v15.6c0,.9,0,1.6-.2,2.1s-.5,1-1.1,1.2c-.5.3-1.2.5-1.9.6-.8,0-1.7,0-2.7,0,0-.5-.2-1.2-.4-1.8s-.5-1.3-.7-1.8h2.6c.4,0,.5-.2.5-.5v-15.5h-.1Z"/>
      </g>
    </g>
  </g>
</svg>